# xmcd
# 
# Track frame offsets:
#     150
#     20749
#     43481
#     56923
#     75640
#     99491
#     121674
#     144474
#     159714
#     174659
#     190093
#     214391
# 
# Disc length: 2897
# 
# Revision: 0
# Processed by: cddbd v1.5.2PL0 Copyright (c) Steve Scherf et al.
# Submitted via: fre:ac v1.0.31
# 
DISCID=ae0b4f0c
DTITLE=John Renbourn and Stefan Grossman - The Three Kingdoms
DYEAR=0
DGENRE=Folk
TTITLE0=The Three Kingdoms
TTITLE1='Round About Midnight
TTITLE2=Dollar Town
TTITLE3=Catwalk
TTITLE4=Cherry
TTITLE5=Rites Of Passage
TTITLE6=Medley: Kiera's Dream - Parson's Mud
TTITLE7=Keeper Of The Vine
TTITLE8=Minuet In D Minor
TTITLE9=Farewell To Mr. Mingus
TTITLE10=Medley: Abide With Me - Old Glory
TTITLE11=Data track
EXTD=
EXTT0=
EXTT1=
EXTT2=
EXTT3=
EXTT4=
EXTT5=
EXTT6=
EXTT7=
EXTT8=
EXTT9=
EXTT10=
EXTT11=
PLAYORDER=
